<?xml version="1.0" encoding="iso-8859-1"?>
<!-- Generator: Adobe Illustrator 19.0.0, SVG Export Plug-In . SVG Version: 6.00 Build 0)  -->
<svg version="1.1" id="Capa_1" xmlns="http://www.w3.org/2000/svg" xmlns:xlink="http://www.w3.org/1999/xlink" x="0px" y="0px"
	 viewBox="0 0 480 480" style="enable-background:new 0 0 480 480;" xml:space="preserve">
<g>
	<g>
		<path d="M240,0C107.452,0,0,107.452,0,240s107.452,240,240,240s240-107.452,240-240C479.85,107.514,372.486,0.15,240,0z M248,16.2
			c117.344,4.328,211.472,98.456,215.8,215.8H248V16.2z M76.161,392.849C37.462,351.365,15.959,296.733,16,240h0
			c0.155-120.526,95.555-219.371,216-223.8V240c0,2.125,0.847,4.163,2.352,5.664L392.528,403.84
			C302.131,488.167,160.489,483.247,76.161,392.849z M403.8,392.528L259.312,248H463.8
			C461.897,301.838,440.586,353.172,403.8,392.528z"/>
	</g>
</g>
<g>
</g>
<g>
</g>
<g>
</g>
<g>
</g>
<g>
</g>
<g>
</g>
<g>
</g>
<g>
</g>
<g>
</g>
<g>
</g>
<g>
</g>
<g>
</g>
<g>
</g>
<g>
</g>
<g>
</g>
</svg>
